# xmcd
#
# Track frame offsets:
#	150
#	11321
#	26838
#	41003
#	54874
#	66968
#	78071
#	90724
#	103538
#	122880
#	136211
#	147648
#	158989
#	173279
#	182640
#	195891
#	212851
#	223259
#
# Disc length: 3158 seconds
#
# Revision: 3
# Processed by: cddbd v1.5.2PL0 Copyright (c) Steve Scherf et al.
# Submitted via: audiograbber 1.83.01
#
DISCID=f30c5412
DTITLE=Verschiedene - Jazzclub Highlights - Jazz goes Hollywood
DYEAR=2007
DGENRE=Jazz
TTITLE0=Danny Davis and His Orchestra - 1. The James Bond Theme
TTITLE1=Dusty Springfield - 2. Second time around
TTITLE2=Astrud Gilberto - 3. Who needs forever
TTITLE3=Dizzy Gillespie - 4. Never on Sunday
TTITLE4=Bing Crosby - 5. Thes all laughed
TTITLE5=Dinah Washington - 6. I' m thru with Love
TTITLE6=Xavier Cugat and His Orchestra - 7. Wonderland by Night
TTITLE7=Sarah Vaughan - 8. Moon River
TTITLE8=Willie Bobo - 9. The Look of Love
TTITLE9=Bert Kaempfert and His Orchestra - 10. Laura
TTITLE10=Walter Wanderley Trio - 11. A Man and a Woman
TTITLE11=Jack Jones - 12. Wives and Lovers
TTITLE12=Blossom Dearie - 13. C' est le Printemps (It might as well be Spring)
TTITLE13=Kai Winding - 14. More
TTITLE14=Quincy Jones and His Orchestra - 15. Manha de Carnaval
TTITLE15=Billy Eckstine - 16. Three Coins in the Fountain
TTITLE16=Wes Montgomery - 17. The Shadow of your Smile
TTITLE17=Swing Out Sister - 18. The Windmills of your Mind
EXTD=
EXTT0=
EXTT1=
EXTT2=
EXTT3=
EXTT4=
EXTT5=
EXTT6=
EXTT7=
EXTT8=
EXTT9=
EXTT10=
EXTT11=
EXTT12=
EXTT13=
EXTT14=
EXTT15=
EXTT16=
EXTT17=
PLAYORDER=
